<svg xmlns="http://www.w3.org/2000/svg" width="960" height="470" viewBox="0 0 960 470" font-family="Consolas, monospace">
<rect width="960" height="470" fill="black"/>
<rect x="60" y="20" width="840" height="410" fill="black" stroke="#3a3a3a"/>
<line x1="123.2" y1="20" x2="123.2" y2="430" stroke="#152515" stroke-width="0.5"/><line x1="160.2" y1="20" x2="160.2" y2="430" stroke="#152515" stroke-width="0.5"/><line x1="186.4" y1="20" x2="186.4" y2="430" stroke="#152515" stroke-width="0.5"/><line x1="206.8" y1="20" x2="206.8" y2="430" stroke="#152515" stroke-width="0.5"/><line x1="223.4" y1="20" x2="223.4" y2="430" stroke="#152515" stroke-width="0.5"/><line x1="237.5" y1="20" x2="237.5" y2="430" stroke="#152515" stroke-width="0.5"/><line x1="249.6" y1="20" x2="249.6" y2="430" stroke="#152515" stroke-width="0.5"/><line x1="260.4" y1="20" x2="260.4" y2="430" stroke="#152515" stroke-width="0.5"/><line x1="333.2" y1="20" x2="333.2" y2="430" stroke="#152515" stroke-width="0.5"/><line x1="370.2" y1="20" x2="370.2" y2="430" stroke="#152515" stroke-width="0.5"/><line x1="396.4" y1="20" x2="396.4" y2="430" stroke="#152515" stroke-width="0.5"/><line x1="416.8" y1="20" x2="416.8" y2="430" stroke="#152515" stroke-width="0.5"/><line x1="433.4" y1="20" x2="433.4" y2="430" stroke="#152515" stroke-width="0.5"/><line x1="447.5" y1="20" x2="447.5" y2="430" stroke="#152515" stroke-width="0.5"/><line x1="459.6" y1="20" x2="459.6" y2="430" stroke="#152515" stroke-width="0.5"/><line x1="470.4" y1="20" x2="470.4" y2="430" stroke="#152515" stroke-width="0.5"/><line x1="543.2" y1="20" x2="543.2" y2="430" stroke="#152515" stroke-width="0.5"/><line x1="580.2" y1="20" x2="580.2" y2="430" stroke="#152515" stroke-width="0.5"/><line x1="606.4" y1="20" x2="606.4" y2="430" stroke="#152515" stroke-width="0.5"/><line x1="626.8" y1="20" x2="626.8" y2="430" stroke="#152515" stroke-width="0.5"/><line x1="643.4" y1="20" x2="643.4" y2="430" stroke="#152515" stroke-width="0.5"/><line x1="657.5" y1="20" x2="657.5" y2="430" stroke="#152515" stroke-width="0.5"/><line x1="669.6" y1="20" x2="669.6" y2="430" stroke="#152515" stroke-width="0.5"/><line x1="680.4" y1="20" x2="680.4" y2="430" stroke="#152515" stroke-width="0.5"/><line x1="753.2" y1="20" x2="753.2" y2="430" stroke="#152515" stroke-width="0.5"/><line x1="790.2" y1="20" x2="790.2" y2="430" stroke="#152515" stroke-width="0.5"/><line x1="816.4" y1="20" x2="816.4" y2="430" stroke="#152515" stroke-width="0.5"/><line x1="836.8" y1="20" x2="836.8" y2="430" stroke="#152515" stroke-width="0.5"/><line x1="853.4" y1="20" x2="853.4" y2="430" stroke="#152515" stroke-width="0.5"/><line x1="867.5" y1="20" x2="867.5" y2="430" stroke="#152515" stroke-width="0.5"/><line x1="879.6" y1="20" x2="879.6" y2="430" stroke="#152515" stroke-width="0.5"/><line x1="890.4" y1="20" x2="890.4" y2="430" stroke="#152515" stroke-width="0.5"/><line x1="60.0" y1="20" x2="60.0" y2="430" stroke="#294a29" stroke-width="0.8"/><line x1="270.0" y1="20" x2="270.0" y2="430" stroke="#294a29" stroke-width="0.8"/><line x1="480.0" y1="20" x2="480.0" y2="430" stroke="#294a29" stroke-width="0.8"/><line x1="690.0" y1="20" x2="690.0" y2="430" stroke="#294a29" stroke-width="0.8"/><line x1="900.0" y1="20" x2="900.0" y2="430" stroke="#294a29" stroke-width="0.8"/><line x1="60" y1="20.0" x2="900" y2="20.0" stroke="#1f3a1f" stroke-width="0.6"/><line x1="60" y1="57.3" x2="900" y2="57.3" stroke="#1f3a1f" stroke-width="0.6"/><line x1="60" y1="94.5" x2="900" y2="94.5" stroke="#1f3a1f" stroke-width="0.6"/><line x1="60" y1="131.8" x2="900" y2="131.8" stroke="#1f3a1f" stroke-width="0.6"/><line x1="60" y1="169.1" x2="900" y2="169.1" stroke="#1f3a1f" stroke-width="0.6"/><line x1="60" y1="206.4" x2="900" y2="206.4" stroke="#1f3a1f" stroke-width="0.6"/><line x1="60" y1="243.6" x2="900" y2="243.6" stroke="#1f3a1f" stroke-width="0.6"/><line x1="60" y1="280.9" x2="900" y2="280.9" stroke="#1f3a1f" stroke-width="0.6"/><line x1="60" y1="318.2" x2="900" y2="318.2" stroke="#1f3a1f" stroke-width="0.6"/><line x1="60" y1="355.5" x2="900" y2="355.5" stroke="#1f3a1f" stroke-width="0.6"/><line x1="60" y1="392.7" x2="900" y2="392.7" stroke="#1f3a1f" stroke-width="0.6"/><line x1="60" y1="430.0" x2="900" y2="430.0" stroke="#1f3a1f" stroke-width="0.6"/>
<text x="480.0" y="14" fill="#00ff00" font-size="14" text-anchor="middle">V(vout)/V(vi)</text>
<polyline points="60.0,20.0 65.2,20.0 70.5,20.0 75.7,20.0 81.0,20.0 86.2,20.0 91.5,20.0 96.8,20.0 102.0,20.0 107.3,20.0 112.5,20.0 117.7,20.0 123.0,20.0 128.2,20.0 133.5,20.0 138.8,20.0 144.0,20.0 149.2,20.0 154.5,20.1 159.8,20.1 165.0,20.1 170.2,20.1 175.5,20.1 180.8,20.1 186.0,20.1 191.2,20.1 196.5,20.1 201.8,20.1 207.0,20.2 212.3,20.2 217.5,20.2 222.7,20.2 228.0,20.3 233.2,20.3 238.5,20.3 243.8,20.4 249.0,20.4 254.2,20.5 259.5,20.5 264.8,20.6 270.0,20.7 275.2,20.7 280.5,20.8 285.8,20.9 291.0,21.0 296.2,21.2 301.5,21.3 306.8,21.4 312.0,21.6 317.2,21.8 322.5,22.0 327.8,22.3 333.0,22.5 338.2,22.8 343.5,23.2 348.8,23.5 354.0,23.9 359.2,24.4 364.5,24.9 369.8,25.4 375.0,26.0 380.2,26.7 385.5,27.4 390.8,28.2 396.0,29.1 401.2,30.0 406.5,31.1 411.8,32.2 417.0,33.4 422.2,34.8 427.5,36.2 432.8,37.7 438.0,39.3 443.2,41.0 448.5,42.9 453.8,44.8 459.0,46.9 464.2,49.0 469.5,51.3 474.8,53.7 480.0,56.1 485.2,58.7 490.5,61.4 495.8,64.1 501.0,67.0 506.2,69.9 511.5,72.9 516.8,75.9 522.0,79.0 527.2,82.2 532.5,85.5 537.8,88.8 543.0,92.1 548.2,95.6 553.5,99.0 558.8,102.5 564.0,106.0 569.2,109.6 574.5,113.2 579.8,116.9 585.0,120.6 590.2,124.3 595.5,128.1 600.8,131.9 606.0,135.7 611.2,139.6 616.5,143.5 621.8,147.5 627.0,151.5 632.2,155.6 637.5,159.7 642.8,163.8 648.0,168.0 653.2,172.3 658.5,176.6 663.8,181.1 669.0,185.5 674.2,190.1 679.5,194.7 684.8,199.4 690.0,204.2 695.2,209.2 700.5,214.2 705.8,219.3 711.0,224.5 716.2,229.8 721.5,235.2 726.8,240.7 732.0,246.3 737.2,252.1 742.5,257.9 747.7,263.9 753.0,269.9 758.2,276.1 763.5,282.3 768.8,288.7 774.0,295.1 779.2,301.6 784.5,308.2 789.8,314.9 795.0,321.6 800.2,328.4 805.5,335.3 810.8,342.2 816.0,349.1 821.2,356.2 826.5,363.2 831.8,370.3 837.0,377.4 842.2,384.6 847.5,391.8 852.8,399.0 858.0,406.3 863.2,413.5 868.5,420.8 873.8,428.1 879.0,430.0 884.2,430.0 889.5,430.0 894.8,430.0 900.0,430.0" fill="none" stroke="#00ff00" stroke-width="2"/>
<polyline points="60.0,22.0 65.2,22.1 70.5,22.2 75.7,22.3 81.0,22.5 86.2,22.6 91.5,22.8 96.8,22.9 102.0,23.1 107.3,23.3 112.5,23.5 117.7,23.7 123.0,23.9 128.2,24.1 133.5,24.4 138.8,24.6 144.0,24.9 149.2,25.2 154.5,25.5 159.8,25.8 165.0,26.2 170.2,26.5 175.5,26.9 180.8,27.3 186.0,27.8 191.2,28.2 196.5,28.7 201.8,29.2 207.0,29.8 212.3,30.3 217.5,31.0 222.7,31.6 228.0,32.3 233.2,33.0 238.5,33.8 243.8,34.6 249.0,35.4 254.2,36.3 259.5,37.3 264.8,38.3 270.0,39.4 275.2,40.5 280.5,41.7 285.8,43.0 291.0,44.3 296.2,45.7 301.5,47.2 306.8,48.8 312.0,50.4 317.2,52.2 322.5,54.0 327.8,55.9 333.0,58.0 338.2,60.1 343.5,62.3 348.8,64.7 354.0,67.1 359.2,69.7 364.5,72.4 369.8,75.2 375.0,78.1 380.2,81.2 385.5,84.3 390.8,87.6 396.0,90.9 401.2,94.4 406.5,98.0 411.8,101.7 417.0,105.5 422.2,109.3 427.5,113.2 432.8,117.2 438.0,121.2 443.2,125.3 448.5,129.4 453.8,133.5 459.0,137.6 464.2,141.8 469.5,145.9 474.8,149.9 480.0,154.0 485.2,158.0 490.5,161.9 495.8,165.9 501.0,169.7 506.2,173.5 511.5,177.2 516.8,180.9 522.0,184.5 527.2,188.0 532.5,191.5 537.8,194.9 543.0,198.2 548.2,201.5 553.5,204.8 558.8,208.0 564.0,211.2 569.2,214.3 574.5,217.5 579.8,220.6 585.0,223.7 590.2,226.8 595.5,229.9 600.8,233.0 606.0,236.1 611.2,239.3 616.5,242.5 621.8,245.7 627.0,249.0 632.2,252.3 637.5,255.6 642.8,259.1 648.0,262.5 653.2,266.1 658.5,269.7 663.8,273.4 669.0,277.1 674.2,280.9 679.5,284.7 684.8,288.7 690.0,292.6 695.2,296.6 700.5,300.7 705.8,304.8 711.0,308.9 716.2,313.0 721.5,317.1 726.8,321.2 732.0,325.3 737.2,329.4 742.5,333.4 747.7,337.4 753.0,341.3 758.2,345.1 763.5,348.9 768.8,352.5 774.0,356.1 779.2,359.6 784.5,362.9 789.8,366.2 795.0,369.3 800.2,372.3 805.5,375.2 810.8,378.0 816.0,380.7 821.2,383.2 826.5,385.7 831.8,388.0 837.0,390.2 842.2,392.3 847.5,394.4 852.8,396.3 858.0,398.1 863.2,399.8 868.5,401.5 873.8,403.0 879.0,404.5 884.2,405.9 889.5,407.2 894.8,408.5 900.0,409.7" fill="none" stroke="#00ff00" stroke-width="1.4" stroke-dasharray="2 3"/>
<text x="60.0" y="448" fill="#cfcfcf" font-size="13" text-anchor="middle">10Hz</text><text x="270.0" y="448" fill="#cfcfcf" font-size="13" text-anchor="middle">100Hz</text><text x="480.0" y="448" fill="#cfcfcf" font-size="13" text-anchor="middle">1KHz</text><text x="690.0" y="448" fill="#cfcfcf" font-size="13" text-anchor="middle">10KHz</text><text x="900.0" y="448" fill="#cfcfcf" font-size="13" text-anchor="middle">100KHz</text><text x="54" y="24.0" fill="#cfcfcf" font-size="12" text-anchor="end">0dB</text><text x="54" y="61.3" fill="#cfcfcf" font-size="12" text-anchor="end">-5dB</text><text x="54" y="98.5" fill="#cfcfcf" font-size="12" text-anchor="end">-10dB</text><text x="54" y="135.8" fill="#cfcfcf" font-size="12" text-anchor="end">-15dB</text><text x="54" y="173.1" fill="#cfcfcf" font-size="12" text-anchor="end">-20dB</text><text x="54" y="210.4" fill="#cfcfcf" font-size="12" text-anchor="end">-25dB</text><text x="54" y="247.6" fill="#cfcfcf" font-size="12" text-anchor="end">-30dB</text><text x="54" y="284.9" fill="#cfcfcf" font-size="12" text-anchor="end">-35dB</text><text x="54" y="322.2" fill="#cfcfcf" font-size="12" text-anchor="end">-40dB</text><text x="54" y="359.5" fill="#cfcfcf" font-size="12" text-anchor="end">-45dB</text><text x="54" y="396.7" fill="#cfcfcf" font-size="12" text-anchor="end">-50dB</text><text x="54" y="434.0" fill="#cfcfcf" font-size="12" text-anchor="end">-55dB</text><text x="906" y="24.0" fill="#cfcfcf" font-size="12" text-anchor="start">0&#176;</text><text x="906" y="69.6" fill="#cfcfcf" font-size="12" text-anchor="start">-20&#176;</text><text x="906" y="115.1" fill="#cfcfcf" font-size="12" text-anchor="start">-40&#176;</text><text x="906" y="160.7" fill="#cfcfcf" font-size="12" text-anchor="start">-60&#176;</text><text x="906" y="206.2" fill="#cfcfcf" font-size="12" text-anchor="start">-80&#176;</text><text x="906" y="251.8" fill="#cfcfcf" font-size="12" text-anchor="start">-100&#176;</text><text x="906" y="297.3" fill="#cfcfcf" font-size="12" text-anchor="start">-120&#176;</text><text x="906" y="342.9" fill="#cfcfcf" font-size="12" text-anchor="start">-140&#176;</text><text x="906" y="388.4" fill="#cfcfcf" font-size="12" text-anchor="start">-160&#176;</text><text x="906" y="434.0" fill="#cfcfcf" font-size="12" text-anchor="start">-180&#176;</text>
</svg>